<svg width="744" height="249" viewBox="0 0 744 249" version="1.1" xmlns="http://www.w3.org/2000/svg" xmlns:xlink="http://www.w3.org/1999/xlink">
<title>Congrats</title>
<desc>Created using Figma</desc>
<g id="Canvas" transform="translate(-7148 272)">
<g id="Congrats">
<g id="Rectangle">
<use xlink:href="#path0_fill" transform="matrix(0.987688 -0.156434 0.156434 0.987688 7148.06 -157.326)" fill="#FFFFFF"/>
</g>
<g id="Congratulations !!!">
<use xlink:href="#path1_fill" transform="matrix(0.987688 -0.156434 0.156434 0.987688 7132 -175.205)" fill="#FF1E00"/>
</g>
</g>
</g>
<defs>
<path id="path0_fill" d="M 0 0L 731.212 0L 731.212 136L 0 136L 0 0Z"/>
<path id="path1_fill" d="M 43.035 124.475C 35.4983 124.475 28.9433 123.113 23.37 120.39C 17.7967 117.603 13.5217 113.677 10.545 108.61C 7.56833 103.543 6.08 97.6533 6.08 90.94C 6.08 81.63 7.82167 73.365 11.305 66.145C 14.8517 58.925 19.6333 53.3517 25.65 49.425C 31.6667 45.435 38.3483 43.44 45.695 43.44C 52.535 43.44 57.7283 45.2133 61.275 48.76C 64.8217 52.2433 66.595 56.8667 66.595 62.63C 66.595 66.4933 65.8983 69.5967 64.505 71.94C 63.175 74.2833 61.2433 75.455 58.71 75.455C 56.9367 75.455 55.5433 75.0433 54.53 74.22C 53.5167 73.3967 53.01 72.1933 53.01 70.61C 53.01 70.04 53.1367 68.995 53.39 67.475C 53.77 65.575 53.96 64.055 53.96 62.915C 53.96 57.1517 50.8883 54.27 44.745 54.27C 40.565 54.27 36.575 55.6317 32.775 58.355C 28.975 61.0783 25.9033 65.1 23.56 70.42C 21.2167 75.6767 20.045 81.9467 20.045 89.23C 20.045 96.83 22.1667 102.72 26.41 106.9C 30.6533 111.017 36.9233 113.075 45.22 113.075C 49.3367 113.075 53.485 112.568 57.665 111.555C 61.9083 110.478 66.595 108.863 71.725 106.71C 72.675 106.33 73.4667 106.14 74.1 106.14C 75.1133 106.14 75.8733 106.52 76.38 107.28C 76.8867 108.04 77.14 109.022 77.14 110.225C 77.14 114.088 75.05 116.938 70.87 118.775C 66.3733 120.738 61.6867 122.195 56.81 123.145C 51.9967 124.032 47.405 124.475 43.035 124.475ZM 117.209 94.835C 118.033 94.835 118.666 95.2467 119.109 96.07C 119.553 96.8933 119.774 97.9383 119.774 99.205C 119.774 102.245 118.856 104.05 117.019 104.62C 113.219 105.95 109.039 106.71 104.479 106.9C 103.276 112.22 100.901 116.495 97.3542 119.725C 93.8076 122.892 89.7859 124.475 85.2892 124.475C 81.4892 124.475 78.2276 123.557 75.5042 121.72C 72.8442 119.883 70.8176 117.445 69.4242 114.405C 68.0309 111.365 67.3342 108.072 67.3342 104.525C 67.3342 99.7117 68.2526 95.4367 70.0892 91.7C 71.9259 87.9 74.4592 84.955 77.6892 82.865C 80.9192 80.7117 84.4976 79.635 88.4242 79.635C 93.2376 79.635 97.1009 81.3133 100.014 84.67C 102.991 87.9633 104.733 92.0483 105.239 96.925C 108.216 96.735 111.763 96.1017 115.879 95.025C 116.386 94.8983 116.829 94.835 117.209 94.835ZM 86.0492 114.405C 88.0759 114.405 89.8176 113.582 91.2742 111.935C 92.7942 110.288 93.8076 107.913 94.3142 104.81C 92.3509 103.48 90.8309 101.738 89.7542 99.585C 88.7409 97.4317 88.2342 95.1517 88.2342 92.745C 88.2342 91.7317 88.3292 90.7183 88.5192 89.705L 88.0442 89.705C 85.5109 89.705 83.3892 90.94 81.6792 93.41C 80.0326 95.8167 79.2092 99.2367 79.2092 103.67C 79.2092 107.153 79.8742 109.813 81.2042 111.65C 82.5976 113.487 84.2126 114.405 86.0492 114.405ZM 118.366 124.475C 115.959 124.475 114.249 123.208 113.236 120.675C 112.286 118.142 111.811 114.088 111.811 108.515C 111.811 100.282 112.982 92.46 115.326 85.05C 115.896 83.2133 116.814 81.8833 118.081 81.06C 119.411 80.1733 121.247 79.73 123.591 79.73C 124.857 79.73 125.744 79.8883 126.251 80.205C 126.757 80.5217 127.011 81.1233 127.011 82.01C 127.011 83.0233 126.536 85.3033 125.586 88.85C 124.952 91.3833 124.446 93.6 124.066 95.5C 123.686 97.4 123.369 99.7433 123.116 102.53C 125.206 97.0833 127.549 92.65 130.146 89.23C 132.742 85.81 135.276 83.3717 137.746 81.915C 140.279 80.4583 142.591 79.73 144.681 79.73C 148.797 79.73 150.856 81.7883 150.856 85.905C 150.856 88.375 150.159 92.84 148.766 99.3C 147.562 104.81 146.961 108.452 146.961 110.225C 146.961 112.758 147.879 114.025 149.716 114.025C 150.982 114.025 152.471 113.265 154.181 111.745C 155.954 110.162 158.297 107.628 161.211 104.145C 161.971 103.258 162.826 102.815 163.776 102.815C 164.599 102.815 165.232 103.195 165.676 103.955C 166.182 104.715 166.436 105.76 166.436 107.09C 166.436 109.623 165.834 111.587 164.631 112.98C 161.907 116.337 158.962 119.092 155.796 121.245C 152.692 123.398 149.146 124.475 145.156 124.475C 141.926 124.475 139.487 123.557 137.841 121.72C 136.194 119.82 135.371 117.097 135.371 113.55C 135.371 111.777 135.814 108.61 136.701 104.05C 137.524 100.06 137.936 97.305 137.936 95.785C 137.936 94.7717 137.587 94.265 136.891 94.265C 136.067 94.265 134.896 95.3417 133.376 97.495C 131.919 99.585 130.399 102.372 128.816 105.855C 127.296 109.338 126.061 113.012 125.111 116.875C 124.414 119.852 123.591 121.878 122.641 122.955C 121.754 123.968 120.329 124.475 118.366 124.475ZM 207.389 103.005C 208.213 103.005 208.846 103.417 209.289 104.24C 209.796 105 210.049 105.982 210.049 107.185C 210.049 108.642 209.828 109.782 209.384 110.605C 208.941 111.428 208.244 112.157 207.294 112.79C 201.848 116.463 197.858 119.187 195.324 120.96L 189.244 125.045C 186.838 138.155 183.671 148.447 179.744 155.92C 175.881 163.457 170.941 167.225 164.924 167.225C 161.694 167.225 159.066 166.212 157.039 164.185C 155.013 162.222 153.999 159.625 153.999 156.395C 153.999 151.898 155.773 147.053 159.319 141.86C 162.866 136.73 169.516 130.397 179.269 122.86L 179.839 119.155C 178.763 120.865 177.338 122.195 175.564 123.145C 173.854 124.032 172.144 124.475 170.434 124.475C 166.508 124.475 163.373 123.05 161.029 120.2C 158.686 117.35 157.514 113.613 157.514 108.99C 157.514 103.923 158.686 99.1417 161.029 94.645C 163.373 90.085 166.476 86.4433 170.339 83.72C 174.266 80.9333 178.414 79.54 182.784 79.54C 184.178 79.54 185.096 79.825 185.539 80.395C 186.046 80.9017 186.458 81.8517 186.774 83.245C 187.978 82.9917 189.371 82.865 190.954 82.865C 192.538 82.865 193.646 83.1183 194.279 83.625C 194.976 84.0683 195.324 84.9867 195.324 86.38C 195.324 87.14 195.293 87.7417 195.229 88.185C 194.976 90.1483 194.184 95.12 192.854 103.1C 192.601 104.62 192.316 106.298 191.999 108.135C 191.746 109.908 191.461 111.808 191.144 113.835C 196.021 110.035 200.708 106.678 205.204 103.765C 206.028 103.258 206.756 103.005 207.389 103.005ZM 173.854 114.88C 175.311 114.88 176.704 113.993 178.034 112.22C 179.364 110.447 180.314 107.913 180.884 104.62L 183.924 88.375C 181.328 88.4383 178.921 89.4517 176.704 91.415C 174.488 93.315 172.714 95.8483 171.384 99.015C 170.054 102.182 169.389 105.538 169.389 109.085C 169.389 111.048 169.769 112.505 170.529 113.455C 171.353 114.405 172.461 114.88 173.854 114.88ZM 165.969 158.01C 167.553 158.01 169.326 156.11 171.289 152.31C 173.316 148.51 175.248 142.462 177.084 134.165C 172.208 138.345 168.693 142.113 166.539 145.47C 164.386 148.827 163.309 151.772 163.309 154.305C 163.309 155.382 163.499 156.268 163.879 156.965C 164.323 157.662 165.019 158.01 165.969 158.01ZM 209.933 124.475C 207.526 124.475 205.816 123.208 204.803 120.675C 203.853 118.142 203.378 114.088 203.378 108.515C 203.378 100.282 204.55 92.46 206.893 85.05C 207.463 83.2133 208.381 81.8833 209.648 81.06C 210.978 80.1733 212.815 79.73 215.158 79.73C 216.425 79.73 217.311 79.8883 217.818 80.205C 218.325 80.5217 218.578 81.1233 218.578 82.01C 218.578 83.0233 218.103 85.3033 217.153 88.85C 216.52 91.3833 216.013 93.6 215.633 95.5C 215.253 97.4 214.936 99.7433 214.683 102.53C 216.773 97.0833 219.116 92.65 221.713 89.23C 224.31 85.81 226.843 83.3717 229.313 81.915C 231.846 80.4583 234.158 79.73 236.248 79.73C 240.365 79.73 242.423 81.7883 242.423 85.905C 242.423 86.7283 242.138 88.7233 241.568 91.89C 241.061 94.4233 240.808 96.0067 240.808 96.64C 240.808 98.8567 241.6 99.965 243.183 99.965C 244.956 99.965 247.236 98.5717 250.023 95.785C 250.846 94.9617 251.701 94.55 252.588 94.55C 253.411 94.55 254.045 94.93 254.488 95.69C 254.995 96.3867 255.248 97.3367 255.248 98.54C 255.248 100.883 254.615 102.72 253.348 104.05C 251.575 105.887 249.485 107.47 247.078 108.8C 244.735 110.067 242.233 110.7 239.573 110.7C 236.216 110.7 233.651 109.845 231.878 108.135C 230.168 106.425 229.313 104.113 229.313 101.2C 229.313 100.25 229.408 99.3 229.598 98.35C 229.725 97.0833 229.788 96.2283 229.788 95.785C 229.788 94.7717 229.44 94.265 228.743 94.265C 227.793 94.265 226.526 95.3417 224.943 97.495C 223.423 99.585 221.903 102.372 220.383 105.855C 218.863 109.338 217.628 113.012 216.678 116.875C 215.981 119.852 215.158 121.878 214.208 122.955C 213.321 123.968 211.896 124.475 209.933 124.475ZM 258.105 124.475C 254.179 124.475 251.044 123.05 248.7 120.2C 246.357 117.35 245.185 113.613 245.185 108.99C 245.185 103.923 246.357 99.1417 248.7 94.645C 251.044 90.085 254.147 86.4433 258.01 83.72C 261.937 80.9333 266.085 79.54 270.455 79.54C 271.849 79.54 272.767 79.825 273.21 80.395C 273.717 80.9017 274.129 81.8517 274.445 83.245C 275.775 82.9917 277.169 82.865 278.625 82.865C 281.729 82.865 283.28 83.9733 283.28 86.19C 283.28 87.52 282.805 90.6867 281.855 95.69C 280.399 102.973 279.67 108.04 279.67 110.89C 279.67 111.84 279.892 112.6 280.335 113.17C 280.842 113.74 281.475 114.025 282.235 114.025C 283.439 114.025 284.895 113.265 286.605 111.745C 288.315 110.162 290.627 107.628 293.54 104.145C 294.3 103.258 295.155 102.815 296.105 102.815C 296.929 102.815 297.562 103.195 298.005 103.955C 298.512 104.715 298.765 105.76 298.765 107.09C 298.765 109.623 298.164 111.587 296.96 112.98C 294.364 116.21 291.609 118.933 288.695 121.15C 285.782 123.367 282.964 124.475 280.24 124.475C 278.15 124.475 276.219 123.778 274.445 122.385C 272.735 120.928 271.437 118.965 270.55 116.495C 267.257 121.815 263.109 124.475 258.105 124.475ZM 261.525 114.88C 262.919 114.88 264.249 114.057 265.515 112.41C 266.782 110.763 267.7 108.578 268.27 105.855L 271.785 88.375C 269.125 88.4383 266.655 89.4517 264.375 91.415C 262.159 93.315 260.385 95.8483 259.055 99.015C 257.725 102.182 257.06 105.538 257.06 109.085C 257.06 111.048 257.44 112.505 258.2 113.455C 259.024 114.405 260.132 114.88 261.525 114.88ZM 333.414 102.815C 334.238 102.815 334.871 103.195 335.314 103.955C 335.821 104.715 336.074 105.76 336.074 107.09C 336.074 109.623 335.473 111.587 334.269 112.98C 331.546 116.337 328.569 119.092 325.339 121.245C 322.109 123.398 318.404 124.475 314.224 124.475C 301.304 124.475 294.844 115.387 294.844 97.21C 294.844 94.4233 294.939 91.605 295.129 88.755L 291.424 88.755C 289.524 88.755 288.226 88.4067 287.529 87.71C 286.896 87.0133 286.579 85.905 286.579 84.385C 286.579 80.8383 288.004 79.065 290.854 79.065L 296.269 79.065C 297.346 72.0983 298.993 65.7333 301.209 59.97C 303.426 54.2067 306.086 49.615 309.189 46.195C 312.356 42.775 315.744 41.065 319.354 41.065C 322.014 41.065 324.104 42.2367 325.624 44.58C 327.144 46.9233 327.904 49.8683 327.904 53.415C 327.904 63.2317 323.788 71.7817 315.554 79.065L 326.194 79.065C 327.208 79.065 327.936 79.2867 328.379 79.73C 328.823 80.1733 329.044 80.9967 329.044 82.2C 329.044 86.57 325.466 88.755 318.309 88.755L 306.719 88.755C 306.593 91.9217 306.529 94.3917 306.529 96.165C 306.529 102.752 307.289 107.375 308.809 110.035C 310.393 112.695 312.863 114.025 316.219 114.025C 318.943 114.025 321.349 113.202 323.439 111.555C 325.529 109.908 327.999 107.438 330.849 104.145C 331.609 103.258 332.464 102.815 333.414 102.815ZM 316.789 50.185C 315.839 50.185 314.763 51.3883 313.559 53.795C 312.419 56.1383 311.311 59.4317 310.234 63.675C 309.221 67.855 308.366 72.51 307.669 77.64C 311.406 74.41 314.193 70.8 316.029 66.81C 317.929 62.7567 318.879 59.0833 318.879 55.79C 318.879 52.0533 318.183 50.185 316.789 50.185ZM 338.029 124.475C 335.179 124.475 332.836 123.177 330.999 120.58C 329.226 117.92 328.339 114.627 328.339 110.7C 328.339 105.95 328.656 101.612 329.289 97.685C 329.923 93.695 330.968 89.4833 332.424 85.05C 333.058 83.15 333.944 81.7883 335.084 80.965C 336.224 80.1417 338.029 79.73 340.499 79.73C 341.893 79.73 342.843 79.9517 343.349 80.395C 343.919 80.8383 344.204 81.5033 344.204 82.39C 344.204 82.8967 343.856 84.6067 343.159 87.52C 342.526 89.8633 342.019 91.985 341.639 93.885C 340.373 100.535 339.739 104.968 339.739 107.185C 339.739 108.515 339.898 109.465 340.214 110.035C 340.531 110.542 341.038 110.795 341.734 110.795C 342.684 110.795 343.856 109.845 345.249 107.945C 346.706 106.045 348.226 103.163 349.809 99.3C 351.456 95.4367 353.039 90.6867 354.559 85.05C 355.066 83.15 355.826 81.7883 356.839 80.965C 357.916 80.1417 359.499 79.73 361.589 79.73C 363.046 79.73 364.059 79.92 364.629 80.3C 365.199 80.6167 365.484 81.25 365.484 82.2C 365.484 83.7833 364.693 88.1217 363.109 95.215C 361.336 103.322 360.449 108.325 360.449 110.225C 360.449 111.428 360.703 112.378 361.209 113.075C 361.716 113.708 362.381 114.025 363.204 114.025C 364.471 114.025 365.959 113.265 367.669 111.745C 369.443 110.162 371.786 107.628 374.699 104.145C 375.459 103.258 376.314 102.815 377.264 102.815C 378.088 102.815 378.721 103.195 379.164 103.955C 379.671 104.715 379.924 105.76 379.924 107.09C 379.924 109.623 379.323 111.587 378.119 112.98C 375.396 116.337 372.451 119.092 369.284 121.245C 366.181 123.398 362.634 124.475 358.644 124.475C 355.604 124.475 353.356 123.303 351.899 120.96C 350.506 118.617 349.809 115.323 349.809 111.08C 348.733 115.387 347.118 118.712 344.964 121.055C 342.811 123.335 340.499 124.475 338.029 124.475ZM 408.226 102.815C 409.049 102.815 409.683 103.195 410.126 103.955C 410.633 104.715 410.886 105.76 410.886 107.09C 410.886 109.623 410.284 111.587 409.081 112.98C 406.358 116.337 403.381 119.092 400.151 121.245C 396.984 123.398 393.374 124.475 389.321 124.475C 383.748 124.475 379.599 121.942 376.876 116.875C 374.216 111.808 372.886 105.253 372.886 97.21C 372.886 89.4833 373.868 80.68 375.831 70.8C 377.858 60.92 380.803 52.4333 384.666 45.34C 388.593 38.2467 393.248 34.7 398.631 34.7C 401.671 34.7 404.046 36.125 405.756 38.975C 407.529 41.7617 408.416 45.7833 408.416 51.04C 408.416 58.5767 406.326 67.3167 402.146 77.26C 397.966 87.2033 392.298 97.0517 385.141 106.805C 385.584 109.402 386.313 111.27 387.326 112.41C 388.339 113.487 389.669 114.025 391.316 114.025C 393.913 114.025 396.193 113.297 398.156 111.84C 400.119 110.32 402.621 107.755 405.661 104.145C 406.421 103.258 407.276 102.815 408.226 102.815ZM 396.541 44.105C 395.084 44.105 393.438 46.7333 391.601 51.99C 389.764 57.2467 388.149 63.77 386.756 71.56C 385.363 79.35 384.603 86.8233 384.476 93.98C 388.973 86.57 392.551 79.16 395.211 71.75C 397.871 64.2767 399.201 57.4683 399.201 51.325C 399.201 46.5117 398.314 44.105 396.541 44.105ZM 413.965 124.475C 410.038 124.475 406.903 123.05 404.56 120.2C 402.216 117.35 401.045 113.613 401.045 108.99C 401.045 103.923 402.216 99.1417 404.56 94.645C 406.903 90.085 410.006 86.4433 413.87 83.72C 417.796 80.9333 421.945 79.54 426.315 79.54C 427.708 79.54 428.626 79.825 429.07 80.395C 429.576 80.9017 429.988 81.8517 430.305 83.245C 431.635 82.9917 433.028 82.865 434.485 82.865C 437.588 82.865 439.14 83.9733 439.14 86.19C 439.14 87.52 438.665 90.6867 437.715 95.69C 436.258 102.973 435.53 108.04 435.53 110.89C 435.53 111.84 435.751 112.6 436.195 113.17C 436.701 113.74 437.335 114.025 438.095 114.025C 439.298 114.025 440.755 113.265 442.465 111.745C 444.175 110.162 446.486 107.628 449.4 104.145C 450.16 103.258 451.015 102.815 451.965 102.815C 452.788 102.815 453.421 103.195 453.865 103.955C 454.371 104.715 454.625 105.76 454.625 107.09C 454.625 109.623 454.023 111.587 452.82 112.98C 450.223 116.21 447.468 118.933 444.555 121.15C 441.641 123.367 438.823 124.475 436.1 124.475C 434.01 124.475 432.078 123.778 430.305 122.385C 428.595 120.928 427.296 118.965 426.41 116.495C 423.116 121.815 418.968 124.475 413.965 124.475ZM 417.385 114.88C 418.778 114.88 420.108 114.057 421.375 112.41C 422.641 110.763 423.56 108.578 424.13 105.855L 427.645 88.375C 424.985 88.4383 422.515 89.4517 420.235 91.415C 418.018 93.315 416.245 95.8483 414.915 99.015C 413.585 102.182 412.92 105.538 412.92 109.085C 412.92 111.048 413.3 112.505 414.06 113.455C 414.883 114.405 415.991 114.88 417.385 114.88ZM 489.274 102.815C 490.097 102.815 490.73 103.195 491.174 103.955C 491.68 104.715 491.934 105.76 491.934 107.09C 491.934 109.623 491.332 111.587 490.129 112.98C 487.405 116.337 484.429 119.092 481.199 121.245C 477.969 123.398 474.264 124.475 470.084 124.475C 457.164 124.475 450.704 115.387 450.704 97.21C 450.704 94.4233 450.799 91.605 450.989 88.755L 447.284 88.755C 445.384 88.755 444.085 88.4067 443.389 87.71C 442.755 87.0133 442.439 85.905 442.439 84.385C 442.439 80.8383 443.864 79.065 446.714 79.065L 452.129 79.065C 453.205 72.0983 454.852 65.7333 457.069 59.97C 459.285 54.2067 461.945 49.615 465.049 46.195C 468.215 42.775 471.604 41.065 475.214 41.065C 477.874 41.065 479.964 42.2367 481.484 44.58C 483.004 46.9233 483.764 49.8683 483.764 53.415C 483.764 63.2317 479.647 71.7817 471.414 79.065L 482.054 79.065C 483.067 79.065 483.795 79.2867 484.239 79.73C 484.682 80.1733 484.904 80.9967 484.904 82.2C 484.904 86.57 481.325 88.755 474.169 88.755L 462.579 88.755C 462.452 91.9217 462.389 94.3917 462.389 96.165C 462.389 102.752 463.149 107.375 464.669 110.035C 466.252 112.695 468.722 114.025 472.079 114.025C 474.802 114.025 477.209 113.202 479.299 111.555C 481.389 109.908 483.859 107.438 486.709 104.145C 487.469 103.258 488.324 102.815 489.274 102.815ZM 472.649 50.185C 471.699 50.185 470.622 51.3883 469.419 53.795C 468.279 56.1383 467.17 59.4317 466.094 63.675C 465.08 67.855 464.225 72.51 463.529 77.64C 467.265 74.41 470.052 70.8 471.889 66.81C 473.789 62.7567 474.739 59.0833 474.739 55.79C 474.739 52.0533 474.042 50.185 472.649 50.185ZM 496.644 73.46C 493.984 73.46 491.989 72.8583 490.659 71.655C 489.329 70.3883 488.664 68.6467 488.664 66.43C 488.664 64.2133 489.519 62.3767 491.229 60.92C 493.002 59.4 495.187 58.64 497.784 58.64C 500.127 58.64 502.027 59.21 503.484 60.35C 504.94 61.49 505.669 63.105 505.669 65.195C 505.669 67.7283 504.845 69.755 503.199 71.275C 501.552 72.7317 499.367 73.46 496.644 73.46ZM 495.884 124.475C 491.767 124.475 488.759 123.018 486.859 120.105C 485.022 117.192 484.104 113.328 484.104 108.515C 484.104 105.665 484.452 102.023 485.149 97.59C 485.909 93.0933 486.859 88.9133 487.999 85.05C 488.569 83.0233 489.329 81.63 490.279 80.87C 491.229 80.11 492.749 79.73 494.839 79.73C 498.069 79.73 499.684 80.8067 499.684 82.96C 499.684 84.5433 499.082 88.2167 497.879 93.98C 496.359 100.947 495.599 105.665 495.599 108.135C 495.599 110.035 495.852 111.492 496.359 112.505C 496.865 113.518 497.72 114.025 498.924 114.025C 500.064 114.025 501.489 113.233 503.199 111.65C 504.909 110.067 507.189 107.565 510.039 104.145C 510.799 103.258 511.654 102.815 512.604 102.815C 513.427 102.815 514.06 103.195 514.504 103.955C 515.01 104.715 515.264 105.76 515.264 107.09C 515.264 109.623 514.662 111.587 513.459 112.98C 507.189 120.643 501.33 124.475 495.884 124.475ZM 556.028 94.835C 556.851 94.835 557.484 95.2467 557.928 96.07C 558.371 96.8933 558.593 97.9383 558.593 99.205C 558.593 102.245 557.674 104.05 555.838 104.62C 552.038 105.95 547.858 106.71 543.298 106.9C 542.094 112.22 539.719 116.495 536.173 119.725C 532.626 122.892 528.604 124.475 524.108 124.475C 520.308 124.475 517.046 123.557 514.323 121.72C 511.663 119.883 509.636 117.445 508.243 114.405C 506.849 111.365 506.153 108.072 506.153 104.525C 506.153 99.7117 507.071 95.4367 508.908 91.7C 510.744 87.9 513.278 84.955 516.508 82.865C 519.738 80.7117 523.316 79.635 527.243 79.635C 532.056 79.635 535.919 81.3133 538.833 84.67C 541.809 87.9633 543.551 92.0483 544.058 96.925C 547.034 96.735 550.581 96.1017 554.698 95.025C 555.204 94.8983 555.648 94.835 556.028 94.835ZM 524.868 114.405C 526.894 114.405 528.636 113.582 530.093 111.935C 531.613 110.288 532.626 107.913 533.133 104.81C 531.169 103.48 529.649 101.738 528.573 99.585C 527.559 97.4317 527.053 95.1517 527.053 92.745C 527.053 91.7317 527.148 90.7183 527.338 89.705L 526.863 89.705C 524.329 89.705 522.208 90.94 520.498 93.41C 518.851 95.8167 518.028 99.2367 518.028 103.67C 518.028 107.153 518.693 109.813 520.023 111.65C 521.416 113.487 523.031 114.405 524.868 114.405ZM 557.184 124.475C 554.777 124.475 553.067 123.208 552.054 120.675C 551.104 118.142 550.629 114.088 550.629 108.515C 550.629 100.282 551.801 92.46 554.144 85.05C 554.714 83.2133 555.632 81.8833 556.899 81.06C 558.229 80.1733 560.066 79.73 562.409 79.73C 563.676 79.73 564.562 79.8883 565.069 80.205C 565.576 80.5217 565.829 81.1233 565.829 82.01C 565.829 83.0233 565.354 85.3033 564.404 88.85C 563.771 91.3833 563.264 93.6 562.884 95.5C 562.504 97.4 562.187 99.7433 561.934 102.53C 564.024 97.0833 566.367 92.65 568.964 89.23C 571.561 85.81 574.094 83.3717 576.564 81.915C 579.097 80.4583 581.409 79.73 583.499 79.73C 587.616 79.73 589.674 81.7883 589.674 85.905C 589.674 88.375 588.977 92.84 587.584 99.3C 586.381 104.81 585.779 108.452 585.779 110.225C 585.779 112.758 586.697 114.025 588.534 114.025C 589.801 114.025 591.289 113.265 592.999 111.745C 594.772 110.162 597.116 107.628 600.029 104.145C 600.789 103.258 601.644 102.815 602.594 102.815C 603.417 102.815 604.051 103.195 604.494 103.955C 605.001 104.715 605.254 105.76 605.254 107.09C 605.254 109.623 604.652 111.587 603.449 112.98C 600.726 116.337 597.781 119.092 594.614 121.245C 591.511 123.398 587.964 124.475 583.974 124.475C 580.744 124.475 578.306 123.557 576.659 121.72C 575.012 119.82 574.189 117.097 574.189 113.55C 574.189 111.777 574.632 108.61 575.519 104.05C 576.342 100.06 576.754 97.305 576.754 95.785C 576.754 94.7717 576.406 94.265 575.709 94.265C 574.886 94.265 573.714 95.3417 572.194 97.495C 570.737 99.585 569.217 102.372 567.634 105.855C 566.114 109.338 564.879 113.012 563.929 116.875C 563.232 119.852 562.409 121.878 561.459 122.955C 560.572 123.968 559.147 124.475 557.184 124.475ZM 615.238 126.565C 611.944 126.565 609.411 125.805 607.638 124.285C 605.928 122.765 605.073 121.055 605.073 119.155C 605.073 117.508 605.674 116.083 606.878 114.88C 608.081 113.677 609.854 113.075 612.198 113.075C 613.021 113.075 613.971 113.17 615.048 113.36C 616.188 113.487 617.043 113.582 617.613 113.645C 617.549 111.998 617.169 110.447 616.473 108.99C 615.839 107.533 615.016 106.14 614.003 104.81C 612.989 103.417 612.039 102.213 611.153 101.2C 609.189 104.937 607.226 108.04 605.263 110.51C 603.363 112.98 601.273 115.323 598.993 117.54C 597.853 118.68 596.649 119.25 595.383 119.25C 594.369 119.25 593.546 118.902 592.913 118.205C 592.279 117.445 591.963 116.527 591.963 115.45C 591.963 114.183 592.406 113.012 593.293 111.935L 594.528 110.415C 598.011 106.108 600.639 102.562 602.413 99.775C 603.553 97.9383 604.693 95.7533 605.833 93.22C 607.036 90.6867 608.588 87.235 610.488 82.865C 611.691 80.0783 614.193 78.685 617.993 78.685C 619.766 78.685 621.001 78.8433 621.698 79.16C 622.394 79.4767 622.743 79.9833 622.743 80.68C 622.743 81.06 622.616 81.6617 622.363 82.485C 622.109 83.3083 621.761 84.1317 621.318 84.955C 620.178 87.235 619.608 89.1667 619.608 90.75C 619.608 91.7 619.924 92.745 620.558 93.885C 621.254 95.025 622.299 96.45 623.693 98.16C 625.719 100.82 627.239 103.1 628.253 105C 629.329 106.837 629.868 108.863 629.868 111.08C 629.868 113.74 629.234 116.273 627.968 118.68C 626.764 121.023 625.054 122.923 622.838 124.38C 620.621 125.837 618.088 126.565 615.238 126.565ZM 670.737 101.77C 669.47 101.77 668.425 101.485 667.602 100.915C 666.779 100.345 666.367 99.4583 666.367 98.255L 666.462 97.495C 667.539 90.4017 668.995 82.3267 670.832 73.27C 672.669 64.2133 674.379 56.3917 675.962 49.805C 676.975 45.7517 679.73 43.725 684.227 43.725C 688.28 43.725 690.307 45.0233 690.307 47.62C 690.307 48.19 690.212 48.8233 690.022 49.52C 688.375 56.2333 686.19 64.3717 683.467 73.935C 680.744 83.435 678.147 91.7 675.677 98.73C 674.98 100.757 673.334 101.77 670.737 101.77ZM 667.127 124.475C 664.34 124.475 662.219 123.715 660.762 122.195C 659.369 120.675 658.672 118.68 658.672 116.21C 658.672 113.36 659.464 111.08 661.047 109.37C 662.694 107.66 664.974 106.805 667.887 106.805C 670.674 106.805 672.764 107.502 674.157 108.895C 675.614 110.225 676.342 112.22 676.342 114.88C 676.342 117.793 675.519 120.137 673.872 121.91C 672.225 123.62 669.977 124.475 667.127 124.475ZM 703.022 101.77C 701.756 101.77 700.711 101.485 699.887 100.915C 699.064 100.345 698.652 99.4583 698.652 98.255L 698.747 97.495C 699.824 90.4017 701.281 82.3267 703.117 73.27C 704.954 64.2133 706.664 56.3917 708.247 49.805C 709.261 45.7517 712.016 43.725 716.512 43.725C 720.566 43.725 722.592 45.0233 722.592 47.62C 722.592 48.19 722.497 48.8233 722.307 49.52C 720.661 56.2333 718.476 64.3717 715.752 73.935C 713.029 83.435 710.432 91.7 707.962 98.73C 707.266 100.757 705.619 101.77 703.022 101.77ZM 699.412 124.475C 696.626 124.475 694.504 123.715 693.047 122.195C 691.654 120.675 690.957 118.68 690.957 116.21C 690.957 113.36 691.749 111.08 693.332 109.37C 694.979 107.66 697.259 106.805 700.172 106.805C 702.959 106.805 705.049 107.502 706.442 108.895C 707.899 110.225 708.627 112.22 708.627 114.88C 708.627 117.793 707.804 120.137 706.157 121.91C 704.511 123.62 702.262 124.475 699.412 124.475ZM 735.307 101.77C 734.041 101.77 732.996 101.485 732.172 100.915C 731.349 100.345 730.937 99.4583 730.937 98.255L 731.032 97.495C 732.109 90.4017 733.566 82.3267 735.402 73.27C 737.239 64.2133 738.949 56.3917 740.532 49.805C 741.546 45.7517 744.301 43.725 748.797 43.725C 752.851 43.725 754.877 45.0233 754.877 47.62C 754.877 48.19 754.782 48.8233 754.592 49.52C 752.946 56.2333 750.761 64.3717 748.037 73.935C 745.314 83.435 742.717 91.7 740.247 98.73C 739.551 100.757 737.904 101.77 735.307 101.77ZM 731.697 124.475C 728.911 124.475 726.789 123.715 725.332 122.195C 723.939 120.675 723.242 118.68 723.242 116.21C 723.242 113.36 724.034 111.08 725.617 109.37C 727.264 107.66 729.544 106.805 732.457 106.805C 735.244 106.805 737.334 107.502 738.727 108.895C 740.184 110.225 740.912 112.22 740.912 114.88C 740.912 117.793 740.089 120.137 738.442 121.91C 736.796 123.62 734.547 124.475 731.697 124.475Z"/>
</defs>
</svg>
