<svg width="1000" height="1000" viewBox="0 0 1000 1000" version="1.1" xmlns="http://www.w3.org/2000/svg" xmlns:xlink="http://www.w3.org/1999/xlink">
<title>Cool Wheel</title>
<desc>Created using Figma</desc>
<g id="Canvas" transform="translate(-5742 417)">
<g id="Cool Wheel">
<g id="Subtract">
<use xlink:href="#path0_fill" transform="translate(5742 -350.484)" fill="#FFFFFF"/>
</g>
<g id="Intersect">
<use xlink:href="#path1_fill" transform="translate(5992 -417)" fill="url(#paint1_linear)"/>
</g>
</g>
</g>
<defs>
<linearGradient id="paint1_linear" x1="0" y1="0" x2="1" y2="0" gradientUnits="userSpaceOnUse" gradientTransform="matrix(-456 447.5 -515.569 -525.362 743.108 222.681)">
<stop offset="0" stop-color="#FF008A"/>
<stop offset="0.198895" stop-color="#AD00FF"/>
<stop offset="0.414365" stop-color="#0094FF"/>
<stop offset="0.629834" stop-color="#00FF29"/>
<stop offset="0.801105" stop-color="#FFD600"/>
<stop offset="1" stop-color="#FF0000"/>
</linearGradient>
<path id="path0_fill" fill-rule="evenodd" d="M 249.676 0.562592C 100.404 87.0609 0 248.547 0 433.484C 0 709.626 223.857 933.484 500 933.484C 776.143 933.484 1000 709.626 1000 433.484C 1000 248.145 899.159 86.3595 749.351 0L 498.5 433.984L 249.676 0.562592Z"/>
<path id="path1_fill" fill-rule="evenodd" d="M 499.674 66.516L 248.824 500.5L 0 67.0786C 73.6167 24.4201 159.118 0 250.324 0C 341.127 0 426.278 24.2055 499.674 66.516Z"/>
</defs>
</svg>
