<svg width="292" height="178" viewBox="0 0 292 178" version="1.1" xmlns="http://www.w3.org/2000/svg" xmlns:xlink="http://www.w3.org/1999/xlink">
<title>Sorry</title>
<desc>Created using Figma</desc>
<g id="Canvas" transform="translate(-7446 -176)">
<g id="Sorry">
<g id="Rectangle">
<use xlink:href="#path0_fill" transform="matrix(0.987688 -0.156434 0.156434 0.987688 7446.28 218.845)" fill="#FFFFFF"/>
</g>
<g id="Sorry !">
<use xlink:href="#path1_fill" transform="matrix(0.987688 -0.156434 0.156434 0.987688 7429.19 201.128)" fill="#FF1E00"/>
</g>
</g>
</g>
<defs>
<path id="path0_fill" d="M 0 0L 273.14 0L 273.14 136L 0 136L 0 0Z"/>
<path id="path1_fill" d="M 31.4161 124.76C 22.9927 124.76 16.2477 123.177 11.1811 120.01C 6.11441 116.78 3.58107 111.872 3.58107 105.285C 3.58107 101.802 4.18274 99.1417 5.38607 97.305C 6.58941 95.4683 8.36274 94.55 10.7061 94.55C 12.4161 94.55 13.8094 94.9933 14.8861 95.88C 15.9627 96.7667 16.5011 97.9067 16.5011 99.3C 16.5011 100.567 16.4061 101.675 16.2161 102.625C 16.2161 102.878 16.1527 103.322 16.0261 103.955C 15.9627 104.588 15.9311 105.253 15.9311 105.95C 15.9311 108.8 17.3561 110.922 20.2061 112.315C 23.1194 113.708 27.1727 114.405 32.3661 114.405C 37.7494 114.405 41.9611 113.455 45.0011 111.555C 48.0411 109.592 49.5611 106.868 49.5611 103.385C 49.5611 101.232 48.8644 99.395 47.4711 97.875C 46.0777 96.2917 44.3361 94.9933 42.2461 93.98C 40.1561 92.9033 37.2111 91.605 33.4111 90.085C 28.5344 88.185 24.5444 86.38 21.4411 84.67C 18.4011 82.96 15.7727 80.6483 13.5561 77.735C 11.4027 74.7583 10.3261 71.085 10.3261 66.715C 10.3261 62.155 11.5294 58.1017 13.9361 54.555C 16.4061 51.0083 19.9211 48.2533 24.4811 46.29C 29.1044 44.3267 34.5194 43.345 40.7261 43.345C 45.3494 43.345 49.5927 44.0417 53.4561 45.435C 57.3194 46.765 60.3911 48.8233 62.6711 51.61C 65.0144 54.3967 66.1861 57.8167 66.1861 61.87C 66.1861 65.86 65.5844 68.8683 64.3811 70.895C 63.1777 72.9217 61.4044 73.935 59.0611 73.935C 57.4144 73.935 56.0211 73.4283 54.8811 72.415C 53.8044 71.4017 53.2661 70.1983 53.2661 68.805C 53.2661 67.6017 53.3611 66.4933 53.5511 65.48C 53.7411 63.58 53.8361 62.3767 53.8361 61.87C 53.8361 59.21 52.5377 57.1833 49.9411 55.79C 47.3444 54.3967 44.1144 53.7 40.2511 53.7C 34.8044 53.7 30.6244 54.7133 27.7111 56.74C 24.8611 58.7033 23.4361 61.49 23.4361 65.1C 23.4361 67.5067 24.1644 69.565 25.6211 71.275C 27.1411 72.985 29.0094 74.41 31.2261 75.55C 33.4427 76.69 36.5461 78.0517 40.5361 79.635C 45.3494 81.5983 49.2127 83.3717 52.1261 84.955C 55.0394 86.5383 57.5094 88.6917 59.5361 91.415C 61.6261 94.1383 62.6711 97.495 62.6711 101.485C 62.6711 108.958 59.8211 114.722 54.1211 118.775C 48.4844 122.765 40.9161 124.76 31.4161 124.76ZM 119.23 94.835C 120.054 94.835 120.687 95.2467 121.13 96.07C 121.574 96.8933 121.795 97.9383 121.795 99.205C 121.795 102.245 120.877 104.05 119.04 104.62C 115.24 105.95 111.06 106.71 106.5 106.9C 105.297 112.22 102.922 116.495 99.3752 119.725C 95.8285 122.892 91.8069 124.475 87.3102 124.475C 83.5102 124.475 80.2485 123.557 77.5252 121.72C 74.8652 119.883 72.8385 117.445 71.4452 114.405C 70.0519 111.365 69.3552 108.072 69.3552 104.525C 69.3552 99.7117 70.2735 95.4367 72.1102 91.7C 73.9469 87.9 76.4802 84.955 79.7102 82.865C 82.9402 80.7117 86.5185 79.635 90.4452 79.635C 95.2585 79.635 99.1219 81.3133 102.035 84.67C 105.012 87.9633 106.754 92.0483 107.26 96.925C 110.237 96.735 113.784 96.1017 117.9 95.025C 118.407 94.8983 118.85 94.835 119.23 94.835ZM 88.0702 114.405C 90.0969 114.405 91.8385 113.582 93.2952 111.935C 94.8152 110.288 95.8285 107.913 96.3352 104.81C 94.3719 103.48 92.8519 101.738 91.7752 99.585C 90.7619 97.4317 90.2552 95.1517 90.2552 92.745C 90.2552 91.7317 90.3502 90.7183 90.5402 89.705L 90.0652 89.705C 87.5319 89.705 85.4102 90.94 83.7002 93.41C 82.0535 95.8167 81.2302 99.2367 81.2302 103.67C 81.2302 107.153 81.8952 109.813 83.2252 111.65C 84.6185 113.487 86.2335 114.405 88.0702 114.405ZM 120.387 124.475C 117.98 124.475 116.27 123.208 115.257 120.675C 114.307 118.142 113.832 114.088 113.832 108.515C 113.832 100.282 115.003 92.46 117.347 85.05C 117.917 83.2133 118.835 81.8833 120.102 81.06C 121.432 80.1733 123.268 79.73 125.612 79.73C 126.878 79.73 127.765 79.8883 128.272 80.205C 128.778 80.5217 129.032 81.1233 129.032 82.01C 129.032 83.0233 128.557 85.3033 127.607 88.85C 126.973 91.3833 126.467 93.6 126.087 95.5C 125.707 97.4 125.39 99.7433 125.137 102.53C 127.227 97.0833 129.57 92.65 132.167 89.23C 134.763 85.81 137.297 83.3717 139.767 81.915C 142.3 80.4583 144.612 79.73 146.702 79.73C 150.818 79.73 152.877 81.7883 152.877 85.905C 152.877 86.7283 152.592 88.7233 152.022 91.89C 151.515 94.4233 151.262 96.0067 151.262 96.64C 151.262 98.8567 152.053 99.965 153.637 99.965C 155.41 99.965 157.69 98.5717 160.477 95.785C 161.3 94.9617 162.155 94.55 163.042 94.55C 163.865 94.55 164.498 94.93 164.942 95.69C 165.448 96.3867 165.702 97.3367 165.702 98.54C 165.702 100.883 165.068 102.72 163.802 104.05C 162.028 105.887 159.938 107.47 157.532 108.8C 155.188 110.067 152.687 110.7 150.027 110.7C 146.67 110.7 144.105 109.845 142.332 108.135C 140.622 106.425 139.767 104.113 139.767 101.2C 139.767 100.25 139.862 99.3 140.052 98.35C 140.178 97.0833 140.242 96.2283 140.242 95.785C 140.242 94.7717 139.893 94.265 139.197 94.265C 138.247 94.265 136.98 95.3417 135.397 97.495C 133.877 99.585 132.357 102.372 130.837 105.855C 129.317 109.338 128.082 113.012 127.132 116.875C 126.435 119.852 125.612 121.878 124.662 122.955C 123.775 123.968 122.35 124.475 120.387 124.475ZM 163.619 124.475C 161.212 124.475 159.502 123.208 158.489 120.675C 157.539 118.142 157.064 114.088 157.064 108.515C 157.064 100.282 158.236 92.46 160.579 85.05C 161.149 83.2133 162.067 81.8833 163.334 81.06C 164.664 80.1733 166.501 79.73 168.844 79.73C 170.111 79.73 170.997 79.8883 171.504 80.205C 172.011 80.5217 172.264 81.1233 172.264 82.01C 172.264 83.0233 171.789 85.3033 170.839 88.85C 170.206 91.3833 169.699 93.6 169.319 95.5C 168.939 97.4 168.622 99.7433 168.369 102.53C 170.459 97.0833 172.802 92.65 175.399 89.23C 177.996 85.81 180.529 83.3717 182.999 81.915C 185.532 80.4583 187.844 79.73 189.934 79.73C 194.051 79.73 196.109 81.7883 196.109 85.905C 196.109 86.7283 195.824 88.7233 195.254 91.89C 194.747 94.4233 194.494 96.0067 194.494 96.64C 194.494 98.8567 195.286 99.965 196.869 99.965C 198.642 99.965 200.922 98.5717 203.709 95.785C 204.532 94.9617 205.387 94.55 206.274 94.55C 207.097 94.55 207.731 94.93 208.174 95.69C 208.681 96.3867 208.934 97.3367 208.934 98.54C 208.934 100.883 208.301 102.72 207.034 104.05C 205.261 105.887 203.171 107.47 200.764 108.8C 198.421 110.067 195.919 110.7 193.259 110.7C 189.902 110.7 187.337 109.845 185.564 108.135C 183.854 106.425 182.999 104.113 182.999 101.2C 182.999 100.25 183.094 99.3 183.284 98.35C 183.411 97.0833 183.474 96.2283 183.474 95.785C 183.474 94.7717 183.126 94.265 182.429 94.265C 181.479 94.265 180.212 95.3417 178.629 97.495C 177.109 99.585 175.589 102.372 174.069 105.855C 172.549 109.338 171.314 113.012 170.364 116.875C 169.667 119.852 168.844 121.878 167.894 122.955C 167.007 123.968 165.582 124.475 163.619 124.475ZM 233.356 79.73C 234.813 79.73 235.826 79.92 236.396 80.3C 236.966 80.68 237.251 81.3133 237.251 82.2C 237.251 83.72 236.428 89.135 234.781 98.445C 233.325 107.375 232.47 112.663 232.216 114.31C 229.873 130.587 226.643 143.475 222.526 152.975C 218.41 162.475 212.931 167.225 206.091 167.225C 202.861 167.225 200.233 166.212 198.206 164.185C 196.18 162.222 195.166 159.625 195.166 156.395C 195.166 153.418 195.831 150.378 197.161 147.275C 198.555 144.172 201.088 140.593 204.761 136.54C 208.498 132.55 213.755 127.958 220.531 122.765L 220.816 120.58C 221.26 118.237 221.766 114.88 222.336 110.51C 221.07 115.07 219.296 118.553 217.016 120.96C 214.736 123.303 212.33 124.475 209.796 124.475C 206.946 124.475 204.603 123.177 202.766 120.58C 200.993 117.92 200.106 114.627 200.106 110.7C 200.106 105.95 200.423 101.612 201.056 97.685C 201.69 93.695 202.735 89.4833 204.191 85.05C 204.825 83.15 205.711 81.7883 206.851 80.965C 207.991 80.1417 209.796 79.73 212.266 79.73C 213.66 79.73 214.61 79.9517 215.116 80.395C 215.686 80.8383 215.971 81.5033 215.971 82.39C 215.971 82.8967 215.623 84.6067 214.926 87.52C 214.293 89.8633 213.786 91.985 213.406 93.885C 212.9 96.4817 212.456 98.9833 212.076 101.39C 211.696 103.733 211.506 105.665 211.506 107.185C 211.506 109.592 212.171 110.795 213.501 110.795C 214.451 110.795 215.623 109.845 217.016 107.945C 218.473 106.045 219.993 103.163 221.576 99.3C 223.223 95.4367 224.806 90.6867 226.326 85.05C 226.833 83.15 227.593 81.7883 228.606 80.965C 229.683 80.1417 231.266 79.73 233.356 79.73ZM 207.136 158.01C 208.72 158.01 210.493 156.173 212.456 152.5C 214.42 148.827 216.383 142.715 218.346 134.165C 213.47 138.282 209.923 142.018 207.706 145.375C 205.553 148.795 204.476 151.772 204.476 154.305C 204.476 155.382 204.666 156.268 205.046 156.965C 205.49 157.662 206.186 158.01 207.136 158.01ZM 278.564 101.77C 277.297 101.77 276.252 101.485 275.429 100.915C 274.605 100.345 274.194 99.4583 274.194 98.255L 274.289 97.495C 275.365 90.4017 276.822 82.3267 278.659 73.27C 280.495 64.2133 282.205 56.3917 283.789 49.805C 284.802 45.7517 287.557 43.725 292.054 43.725C 296.107 43.725 298.134 45.0233 298.134 47.62C 298.134 48.19 298.039 48.8233 297.849 49.52C 296.202 56.2333 294.017 64.3717 291.294 73.935C 288.57 83.435 285.974 91.7 283.504 98.73C 282.807 100.757 281.16 101.77 278.564 101.77ZM 274.954 124.475C 272.167 124.475 270.045 123.715 268.589 122.195C 267.195 120.675 266.499 118.68 266.499 116.21C 266.499 113.36 267.29 111.08 268.874 109.37C 270.52 107.66 272.8 106.805 275.714 106.805C 278.5 106.805 280.59 107.502 281.984 108.895C 283.44 110.225 284.169 112.22 284.169 114.88C 284.169 117.793 283.345 120.137 281.699 121.91C 280.052 123.62 277.804 124.475 274.954 124.475Z"/>
</defs>
</svg>
