<svg width="250" height="204" viewBox="0 0 250 204" version="1.1" xmlns="http://www.w3.org/2000/svg" xmlns:xlink="http://www.w3.org/1999/xlink">
<title>Twitter_Logo_WhiteOnWhite</title>
<desc>Created using Figma</desc>
<g id="Canvas" transform="translate(-5777 310)">
<g id="Twitter_Logo_WhiteOnWhite">
<g id="Logo &#226;&#128;&#148; FIXED">
<g id="Vector">
<use xlink:href="#path0_fill" transform="translate(5777 -309.548)" fill="#FFFFFF"/>
</g>
</g>
</g>
</g>
<defs>
<path id="path0_fill" d="M 78.62 203.138C 172.96 203.138 224.56 124.978 224.56 57.198C 224.56 54.978 224.56 52.768 224.41 50.568C 234.448 43.3071 243.114 34.3168 250 24.018C 240.639 28.166 230.708 30.8863 220.54 32.088C 231.247 25.6778 239.261 15.5957 243.09 3.71801C 233.022 9.69256 222.006 13.9031 210.52 16.168C 202.787 7.94485 192.559 2.49969 181.419 0.675136C 170.279 -1.14942 158.848 0.748367 148.895 6.07481C 138.943 11.4013 131.023 19.8594 126.362 30.1404C 121.701 40.4214 120.558 51.952 123.11 62.948C 102.718 61.9257 82.768 56.6263 64.5564 47.3939C 46.3448 38.1615 30.2784 25.2024 17.4 9.358C 10.8409 20.6496 8.832 34.0166 11.7823 46.7374C 14.7326 59.4582 22.4202 70.5763 33.28 77.828C 25.1174 77.5861 17.1328 75.3841 10 71.408C 10 71.618 10 71.838 10 72.058C 10.0032 83.9002 14.1026 95.3767 21.6028 104.541C 29.103 113.705 39.5423 119.993 51.15 122.338C 43.5987 124.397 35.6758 124.698 27.99 123.218C 31.2676 133.41 37.6486 142.322 46.2407 148.709C 54.8328 155.095 65.2061 158.637 75.91 158.838C 57.7474 173.112 35.3106 180.861 12.21 180.838C 8.12903 180.83 4.05204 180.583 1.42109e-14 180.098C 23.4564 195.151 50.7491 203.135 78.62 203.098"/>
</defs>
</svg>
